<svg xmlns="http://www.w3.org/2000/svg" xmlns:xlink="http://www.w3.org/1999/xlink" width="2000" zoomAndPan="magnify" viewBox="0 0 1500 1499.999933" height="2000" preserveAspectRatio="xMidYMid meet" version="1.0"><defs><g/><clipPath id="198f81663f"><path d="M 0 0 L 1500 0 L 1500 1499.960938 L 0 1499.960938 Z M 0 0 " clip-rule="nonzero"/></clipPath><clipPath id="dcaa98bc95"><path d="M 1500 75 L 1500 1424.960938 C 1500 1466.378906 1466.421875 1499.960938 1425 1499.960938 L 74.546875 1499.960938 C 33.125 1499.960938 -0.453125 1466.378906 -0.453125 1424.960938 L -0.453125 75 C -0.453125 33.578125 33.125 0 74.546875 0 L 1425 0 C 1466.421875 0 1500 33.578125 1500 75 Z M 1500 75 " clip-rule="nonzero"/></clipPath><clipPath id="dbbf8b67a8"><path d="M 0 0 L 1500 0 L 1500 1499.960938 L 0 1499.960938 Z M 0 0 " clip-rule="nonzero"/></clipPath><clipPath id="23af955254"><path d="M 1500 75 L 1500 1424.960938 C 1500 1466.378906 1466.421875 1499.960938 1425 1499.960938 L 74.546875 1499.960938 C 33.125 1499.960938 -0.453125 1466.378906 -0.453125 1424.960938 L -0.453125 75 C -0.453125 33.578125 33.125 0 74.546875 0 L 1425 0 C 1466.421875 0 1500 33.578125 1500 75 Z M 1500 75 " clip-rule="nonzero"/></clipPath><clipPath id="a3a54a0050"><rect x="0" width="1500" y="0" height="1500"/></clipPath><clipPath id="5717f81d4c"><path d="M 452.496094 452.496094 L 1047.503906 452.496094 L 1047.503906 1047.503906 L 452.496094 1047.503906 Z M 452.496094 452.496094 " clip-rule="nonzero"/></clipPath><clipPath id="79a4caec70"><path d="M 0.496094 0.496094 L 595.503906 0.496094 L 595.503906 595.503906 L 0.496094 595.503906 Z M 0.496094 0.496094 " clip-rule="nonzero"/></clipPath><clipPath id="2c9adfde2f"><rect x="0" width="596" y="0" height="596"/></clipPath><clipPath id="ea634b8121"><rect x="0" width="230" y="0" height="535"/></clipPath></defs><g clip-path="url(#198f81663f)"><g clip-path="url(#dcaa98bc95)"><g transform="matrix(1, 0, 0, 1, 0, 0.000000000000112861)"><g clip-path="url(#a3a54a0050)"><g clip-path="url(#dbbf8b67a8)"><g clip-path="url(#23af955254)"><path fill="#ffffff" d="M -0.453125 0 L 1499.507812 0 L 1499.507812 1499.960938 L -0.453125 1499.960938 Z M -0.453125 0 " fill-opacity="1" fill-rule="nonzero"/></g></g></g></g></g></g><g clip-path="url(#5717f81d4c)"><g transform="matrix(1, 0, 0, 1, 452, 452)"><g clip-path="url(#2c9adfde2f)"><g clip-path="url(#79a4caec70)"><path fill="#3333cc" d="M 0.496094 0.496094 L 595.503906 0.496094 L 595.503906 595.503906 L 0.496094 595.503906 Z M 0.496094 0.496094 " fill-opacity="1" fill-rule="nonzero"/></g></g></g></g><g transform="matrix(1, 0, 0, 1, 1052, 30)"><g clip-path="url(#ea634b8121)"><g fill="#3333cc" fill-opacity="1"><g transform="translate(0.733459, 406.965827)"><g><path d="M 121.734375 4.921875 C 102.878906 4.921875 85.800781 1.570312 70.5 -5.125 C 55.195312 -11.820312 42.898438 -22.132812 33.609375 -36.0625 C 24.316406 -50 19.398438 -67.488281 18.859375 -88.53125 L 70.5 -88.53125 C 70.769531 -74.59375 75.34375 -62.910156 84.21875 -53.484375 C 93.101562 -44.054688 105.609375 -39.34375 121.734375 -39.34375 C 137.035156 -39.34375 148.785156 -43.578125 156.984375 -52.046875 C 165.179688 -60.523438 169.28125 -71.1875 169.28125 -84.03125 C 169.28125 -99.050781 163.878906 -110.457031 153.078125 -118.25 C 142.285156 -126.039062 128.421875 -129.9375 111.484375 -129.9375 L 90.171875 -129.9375 L 90.171875 -172.96875 L 111.890625 -172.96875 C 125.828125 -172.96875 137.441406 -176.242188 146.734375 -182.796875 C 156.023438 -189.359375 160.671875 -199.0625 160.671875 -211.90625 C 160.671875 -222.5625 157.1875 -231.097656 150.21875 -237.515625 C 143.25 -243.941406 133.617188 -247.15625 121.328125 -247.15625 C 107.929688 -247.15625 97.476562 -243.191406 89.96875 -235.265625 C 82.457031 -227.335938 78.289062 -217.640625 77.46875 -206.171875 L 26.234375 -206.171875 C 27.328125 -232.671875 36.546875 -253.570312 53.890625 -268.875 C 71.242188 -284.175781 93.722656 -291.828125 121.328125 -291.828125 C 140.992188 -291.828125 157.585938 -288.34375 171.109375 -281.375 C 184.640625 -274.40625 194.890625 -265.179688 201.859375 -253.703125 C 208.828125 -242.234375 212.3125 -229.53125 212.3125 -215.59375 C 212.3125 -199.46875 207.867188 -185.875 198.984375 -174.8125 C 190.109375 -163.75 179.113281 -156.300781 166 -152.46875 C 182.125 -149.195312 195.238281 -141.34375 205.34375 -128.90625 C 215.457031 -116.46875 220.515625 -100.820312 220.515625 -81.96875 C 220.515625 -66.125 216.6875 -51.644531 209.03125 -38.53125 C 201.382812 -25.414062 190.25 -14.894531 175.625 -6.96875 C 161.007812 0.957031 143.046875 4.921875 121.734375 4.921875 Z M 121.734375 4.921875 "/></g></g></g></g></g></svg>